<?xml version="1.0" encoding="UTF-8"?>
<svg id="Layer_2" data-name="Layer 2" xmlns="http://www.w3.org/2000/svg" viewBox="0 0 296.82 79.42">
  <defs>
    <style>
      .cls-1 {
        fill: #fff;
      }

      .cls-2 {
        fill: #e79933;
      }
    </style>
  </defs>
  <g id="Layer_1-2" data-name="Layer 1">
    <g>
      <g>
        <path class="cls-2" d="M43.95,45.81c0,3.26-.52,6.23-1.57,8.91-1.04,2.68-2.53,4.96-4.45,6.85-1.93,1.89-4.23,3.36-6.9,4.4-2.68,1.04-5.65,1.57-8.91,1.57-2.94,0-5.74-.46-8.42-1.37-2.68-.91-5.03-2.24-7.05-3.96-2.02-1.73-3.64-3.83-4.85-6.31-1.21-2.48-1.81-5.29-1.81-8.42s.52-5.58,1.57-7.73c1.04-2.15,2.46-3.93,4.26-5.33,1.79-1.4,3.9-2.45,6.31-3.13,2.41-.69,4.99-1.03,7.73-1.03v.39c-2.35,.13-4.52,.7-6.51,1.71-1.99,1.01-3.69,2.33-5.09,3.96-1.4,1.63-2.5,3.49-3.28,5.58-.78,2.09-1.17,4.31-1.17,6.66,0,2.67,.44,5.11,1.32,7.29,.88,2.18,2.1,4.06,3.67,5.63,1.57,1.57,3.46,2.77,5.68,3.62,2.22,.85,4.66,1.27,7.34,1.27,5.29,0,9.41-1.55,12.38-4.65,2.97-3.1,4.45-7.29,4.45-12.58,0-2.8-.64-5.37-1.91-7.68-1.27-2.32-2.87-4.5-4.8-6.56-1.93-2.06-4.01-4.03-6.26-5.92-2.25-1.89-4.34-3.78-6.26-5.68-1.93-1.89-3.52-3.85-4.8-5.87-1.27-2.02-1.91-4.21-1.91-6.56,0-1.7,.31-3.23,.93-4.6,.62-1.37,1.47-2.51,2.54-3.43,1.08-.91,2.33-1.62,3.77-2.1,1.43-.49,2.97-.73,4.6-.73,.65,0,1.29,.07,1.91,.2,.62,.13,1.22,.26,1.81,.39l2.45,.78c1.3,.39,2.55,.59,3.72,.59,.91,0,1.63-.36,2.15-1.08l-.69,11.35c-.26-1.3-.72-2.64-1.37-4.01-.65-1.37-1.49-2.61-2.5-3.72-1.01-1.11-2.15-2.04-3.43-2.79-1.27-.75-2.66-1.13-4.16-1.13-2.42,0-4.49,.65-6.22,1.96-1.73,1.31-2.59,3.26-2.59,5.87,0,2.02,.7,3.96,2.1,5.82,1.4,1.86,3.15,3.69,5.24,5.48,2.09,1.8,4.36,3.62,6.8,5.48,2.45,1.86,4.71,3.83,6.8,5.92,2.09,2.09,3.83,4.34,5.24,6.75,1.4,2.41,2.1,5.06,2.1,7.93Z"/>
        <path class="cls-2" d="M89.82,46.93c0,4.61-.77,8.89-2.32,12.84-1.55,3.95-3.71,7.39-6.5,10.31-2.78,2.92-6.12,5.21-10,6.86-3.89,1.65-8.17,2.48-12.84,2.48h-15.68c1.58-.41,2.61-1.24,3.09-2.48,.48-1.24,.72-2.54,.72-3.92V35.07c0-1.37-.28-2.66-.82-3.87-.55-1.2-1.55-1.98-2.99-2.32h13.92c-1.51,.34-2.53,1.13-3.04,2.37-.52,1.24-.77,2.54-.77,3.92v43.31h5.47c4.47,0,8.27-.96,11.4-2.89,3.13-1.92,5.71-4.43,7.73-7.53,2.03-3.09,3.51-6.56,4.43-10.42,.93-3.85,1.39-7.7,1.39-11.55,0-4.67-.71-9.09-2.11-13.25-1.41-4.16-3.44-7.8-6.09-10.93-2.65-3.13-5.91-5.62-9.8-7.48-3.89-1.86-8.3-2.78-13.25-2.78-4.68,0-9.01,.88-12.99,2.63-3.99,1.75-7.43,4.14-10.31,7.17-2.89,3.03-5.14,6.57-6.75,10.62-1.61,4.06-2.42,8.39-2.42,12.99,0,3.44,.45,6.7,1.34,9.8,.89,3.09,2.24,5.86,4.02,8.3,1.79,2.44,4.01,4.5,6.65,6.19,2.65,1.69,5.72,2.91,9.23,3.66l-.62,.93c-3.64-.62-6.98-1.86-10-3.71-3.02-1.86-5.62-4.11-7.79-6.75-2.17-2.65-3.87-5.64-5.1-8.97-1.24-3.33-1.86-6.82-1.86-10.47,0-5.09,1-9.68,2.99-13.77,1.99-4.09,4.68-7.58,8.04-10.47,3.37-2.89,7.27-5.12,11.71-6.7,4.43-1.58,9.06-2.37,13.87-2.37,5.16,0,10.04,.89,14.64,2.68,4.61,1.79,8.65,4.28,12.12,7.48,3.47,3.2,6.22,7.01,8.25,11.45,2.03,4.43,3.04,9.3,3.04,14.59Z"/>
      </g>
      <g>
        <g>
          <path class="cls-1" d="M159.33,36.37c0,1.39-.22,2.66-.67,3.8-.45,1.14-1.08,2.12-1.9,2.92-.82,.81-1.8,1.43-2.95,1.88-1.14,.45-2.41,.67-3.8,.67-1.25,0-2.45-.2-3.59-.58-1.14-.39-2.15-.95-3.01-1.69-.86-.74-1.55-1.64-2.07-2.69-.52-1.06-.77-2.26-.77-3.59s.22-2.38,.67-3.3c.45-.92,1.05-1.68,1.82-2.28,.77-.6,1.66-1.04,2.69-1.34,1.03-.29,2.13-.44,3.3-.44v.17c-1,.06-1.93,.3-2.78,.73-.85,.43-1.57,1-2.17,1.69-.6,.7-1.07,1.49-1.4,2.38-.33,.89-.5,1.84-.5,2.84,0,1.14,.19,2.18,.56,3.11,.38,.93,.9,1.73,1.57,2.4s1.48,1.18,2.42,1.55c.95,.36,1.99,.54,3.13,.54,2.26,0,4.02-.66,5.29-1.98,1.27-1.32,1.9-3.11,1.9-5.37,0-1.2-.27-2.29-.81-3.28-.54-.99-1.23-1.92-2.05-2.8-.82-.88-1.71-1.72-2.67-2.53-.96-.81-1.85-1.62-2.67-2.42-.82-.81-1.5-1.64-2.05-2.51-.54-.86-.81-1.8-.81-2.8,0-.72,.13-1.38,.4-1.96,.26-.58,.63-1.07,1.09-1.46,.46-.39,1-.69,1.61-.9,.61-.21,1.27-.31,1.96-.31,.28,0,.55,.03,.81,.08,.26,.06,.52,.11,.77,.17l1.04,.33c.56,.17,1.09,.25,1.59,.25,.39,0,.7-.15,.92-.46l-.29,4.85c-.11-.56-.31-1.13-.58-1.71-.28-.58-.63-1.11-1.07-1.59-.43-.47-.92-.87-1.46-1.19-.54-.32-1.14-.48-1.78-.48-1.03,0-1.92,.28-2.65,.84-.74,.56-1.11,1.39-1.11,2.51,0,.86,.3,1.69,.9,2.49,.6,.79,1.34,1.57,2.24,2.34,.89,.77,1.86,1.55,2.9,2.34,1.04,.79,2.01,1.64,2.9,2.53,.89,.89,1.64,1.85,2.24,2.88,.6,1.03,.9,2.16,.9,3.38Z"/>
          <path class="cls-1" d="M182.6,27.56c0,1.42-.27,2.76-.81,4.01-.54,1.25-1.28,2.35-2.21,3.28s-2.03,1.67-3.28,2.21c-1.25,.54-2.59,.81-4.01,.81s-2.76-.27-4.01-.81c-1.25-.54-2.35-1.28-3.28-2.21-.93-.93-1.67-2.03-2.21-3.28-.54-1.25-.81-2.59-.81-4.01s.27-2.76,.81-4.01c.54-1.25,1.28-2.35,2.21-3.28s2.03-1.67,3.28-2.21c1.25-.54,2.59-.81,4.01-.81s2.76,.27,4.01,.81c1.25,.54,2.35,1.28,3.28,2.21,.93,.93,1.67,2.03,2.21,3.28,.54,1.25,.81,2.59,.81,4.01Zm-17.76-.5c0,1.14,.17,2.33,.5,3.57,.33,1.24,.84,2.38,1.5,3.43s1.5,1.9,2.51,2.57,2.16,1,3.47,1c1.2,0,2.24-.31,3.11-.92,.88-.61,1.61-1.39,2.19-2.34,.58-.95,1.02-1.98,1.3-3.11,.28-1.13,.42-2.19,.42-3.2,0-1.11-.17-2.29-.52-3.53-.35-1.24-.86-2.37-1.55-3.41-.68-1.03-1.53-1.88-2.53-2.55-1-.67-2.15-1-3.43-1-1.2,0-2.24,.31-3.11,.92-.88,.61-1.6,1.39-2.17,2.32-.57,.93-1,1.96-1.27,3.07-.28,1.11-.42,2.17-.42,3.18Z"/>
          <path class="cls-1" d="M186.91,34.75c0,.78,.22,1.43,.67,1.94,.45,.52,1.03,.88,1.75,1.11h-4.97c1.5-.47,2.26-1.49,2.26-3.05v-14.25c0-.75-.2-1.41-.58-1.98-.39-.57-.95-.97-1.67-1.19h4.22l11.49,15.71v-12.66c0-.78-.2-1.43-.61-1.94-.4-.52-.97-.88-1.69-1.11h4.8c-1.45,.47-2.17,1.49-2.17,3.05v17.42l-13.45-18.43-.04,15.38Z"/>
          <path class="cls-1" d="M209.55,35.12c0,.56,.1,1.09,.29,1.61,.19,.52,.58,.87,1.17,1.07h-5.51c.61-.19,1.02-.54,1.21-1.04,.19-.5,.29-1.04,.29-1.63v-15.25c0-.56-.1-1.07-.29-1.55-.2-.47-.6-.81-1.21-1h5.51c-.58,.2-.98,.53-1.17,1-.2,.47-.29,.99-.29,1.55v15.25Z"/>
          <path class="cls-1" d="M216.82,35.87c0,.53,.15,.95,.46,1.25,.31,.31,.7,.53,1.17,.67h-4.47c.5-.17,.97-.47,1.42-.92,.45-.45,.77-.93,.96-1.46l7.1-18.34,7.14,18.34c.22,.5,.51,.98,.86,1.44,.35,.46,.79,.77,1.32,.94h-6.02c.36-.11,.66-.36,.9-.73,.24-.38,.36-.73,.36-1.07,0-.22-.1-.61-.29-1.17-.2-.56-.42-1.16-.67-1.8-.25-.64-.49-1.25-.73-1.84-.24-.58-.41-1.02-.52-1.3h-6.89c-.11,.28-.28,.69-.5,1.23-.22,.54-.45,1.11-.69,1.71-.24,.6-.45,1.18-.63,1.73-.18,.56-.27,.99-.27,1.3Zm2.17-6.31h6.64l-3.3-8.61-3.34,8.61Z"/>
        </g>
        <g>
          <path class="cls-1" d="M140.4,49.37c0,1.87-.31,3.6-.94,5.2-.63,1.6-1.5,2.99-2.63,4.18-1.13,1.18-2.48,2.11-4.05,2.78-1.57,.67-3.31,1-5.2,1h-6.35c.64-.17,1.06-.5,1.25-1,.19-.5,.29-1.03,.29-1.59v-15.38c0-.56-.11-1.08-.33-1.57-.22-.49-.63-.8-1.21-.94h5.64c-.61,.14-1.02,.46-1.23,.96-.21,.5-.31,1.03-.31,1.59v17.55h2.21c1.81,0,3.35-.39,4.62-1.17,1.27-.78,2.31-1.8,3.13-3.05,.82-1.25,1.42-2.66,1.8-4.22,.38-1.56,.56-3.12,.56-4.68,0-1.89-.29-3.68-.86-5.37-.57-1.68-1.39-3.16-2.46-4.43-1.07-1.27-2.4-2.28-3.97-3.03-1.57-.75-3.36-1.13-5.37-1.13-1.89,0-3.65,.36-5.26,1.07-1.62,.71-3.01,1.68-4.18,2.9-1.17,1.23-2.08,2.66-2.74,4.3-.65,1.64-.98,3.4-.98,5.26,0,1.39,.18,2.72,.54,3.97,.36,1.25,.91,2.38,1.63,3.36,.72,.99,1.62,1.82,2.69,2.51,1.07,.68,2.32,1.18,3.74,1.48l-.25,.38c-1.48-.25-2.83-.75-4.05-1.5-1.23-.75-2.28-1.66-3.15-2.74-.88-1.07-1.57-2.28-2.07-3.64-.5-1.35-.75-2.76-.75-4.24,0-2.06,.4-3.92,1.21-5.58,.81-1.66,1.89-3.07,3.26-4.24,1.36-1.17,2.95-2.07,4.74-2.72,1.8-.64,3.67-.96,5.62-.96,2.09,0,4.07,.36,5.93,1.09,1.87,.72,3.5,1.73,4.91,3.03,1.41,1.3,2.52,2.84,3.34,4.64,.82,1.8,1.23,3.77,1.23,5.91Z"/>
          <path class="cls-1" d="M142.69,60.61c0,.53,.15,.95,.46,1.25,.31,.31,.7,.53,1.17,.67h-4.47c.5-.17,.97-.47,1.42-.92,.45-.45,.77-.93,.96-1.46l7.1-18.34,7.14,18.34c.22,.5,.51,.98,.86,1.44,.35,.46,.79,.77,1.32,.94h-6.02c.36-.11,.66-.36,.9-.73,.24-.38,.36-.73,.36-1.07,0-.22-.1-.61-.29-1.17-.2-.56-.42-1.16-.67-1.8-.25-.64-.49-1.25-.73-1.84-.24-.58-.41-1.02-.52-1.3h-6.89c-.11,.28-.28,.69-.5,1.23-.22,.54-.45,1.11-.69,1.71-.24,.6-.45,1.18-.63,1.73-.18,.56-.27,.99-.27,1.3Zm2.17-6.31h6.64l-3.3-8.61-3.34,8.61Z"/>
          <path class="cls-1" d="M164.21,59.94c0,.56,.11,1.08,.33,1.57,.22,.49,.61,.83,1.17,1.02h-5.51c.58-.19,.97-.55,1.17-1.07,.19-.52,.29-1.05,.29-1.61v-15.25c0-.56-.1-1.08-.29-1.57-.2-.49-.58-.81-1.17-.98h7.1c1,0,1.98,.11,2.95,.33,.96,.22,1.82,.58,2.57,1.07,.75,.49,1.36,1.13,1.82,1.92s.69,1.76,.69,2.9c0,1.64-.49,2.98-1.48,4.01-.99,1.03-2.25,1.73-3.78,2.09l3.8,6.14c.31,.45,.67,.85,1.09,1.21,.42,.36,.86,.63,1.34,.79h-3.89l-4.97-8.06h-3.22v5.47Zm0-5.77h2.84c1.75,0,3.14-.54,4.16-1.63,1.02-1.09,1.52-2.51,1.52-4.26s-.49-3.28-1.46-4.32c-.98-1.04-2.38-1.57-4.22-1.57h-2.84v11.78Z"/>
          <path class="cls-1" d="M187.23,62.2c1.31,0,2.59-.27,3.84-.81,1.25-.54,2.2-1.43,2.84-2.65l-.92,3.8h-13.75c.61-.19,1.02-.55,1.21-1.07,.19-.52,.29-1.05,.29-1.61v-15.25c0-.56-.1-1.07-.29-1.55-.2-.47-.6-.81-1.21-1h5.51c-.58,.2-.98,.53-1.17,1-.2,.47-.29,.99-.29,1.55v17.59h3.93Zm5.14-8.52c0,.53,.11,1.04,.33,1.53,.22,.49,.61,.81,1.17,.98h-5.56c.56-.17,.95-.5,1.17-1,.22-.5,.33-1.03,.33-1.59v-8.98c0-.56-.1-1.07-.31-1.55-.21-.47-.61-.81-1.19-1h5.56c-.58,.2-.98,.53-1.19,1-.21,.47-.31,.99-.31,1.55v9.07Z"/>
          <path class="cls-1" d="M199.39,59.48c0,.78,.22,1.43,.67,1.94,.45,.52,1.03,.88,1.75,1.11h-4.97c1.5-.47,2.26-1.49,2.26-3.05v-14.25c0-.75-.2-1.41-.58-1.98-.39-.57-.95-.97-1.67-1.19h4.22l11.49,15.71v-12.66c0-.78-.2-1.43-.61-1.94-.4-.52-.97-.88-1.69-1.11h4.8c-1.45,.47-2.17,1.49-2.17,3.05v17.42l-13.45-18.43-.04,15.38Z"/>
          <path class="cls-1" d="M237.53,54.09c-.47,.17-.82,.47-1.04,.9-.22,.43-.33,.88-.33,1.36v6.35c-.2-.36-.45-.74-.77-1.13-.32-.39-.7-.58-1.15-.58-.2,0-.48,.08-.86,.25s-.81,.36-1.32,.56c-.5,.21-1.05,.4-1.65,.56-.6,.17-1.23,.25-1.9,.25-1.45,0-2.81-.26-4.09-.79-1.28-.53-2.4-1.25-3.34-2.17-.95-.92-1.69-2.01-2.24-3.26s-.81-2.62-.81-4.09,.27-2.84,.81-4.09,1.29-2.34,2.24-3.26c.95-.92,2.06-1.64,3.34-2.17,1.28-.53,2.65-.79,4.09-.79,1.11,0,2.28,.15,3.51,.44,1.23,.29,2.28,.8,3.18,1.53v3.34c-.42-.58-.89-1.17-1.42-1.75-.53-.58-1.11-1.11-1.75-1.59-.64-.47-1.32-.86-2.03-1.15-.71-.29-1.44-.44-2.19-.44-1.17,0-2.19,.31-3.05,.92-.86,.61-1.59,1.38-2.17,2.3-.58,.92-1.02,1.93-1.3,3.03-.28,1.1-.42,2.15-.42,3.15,0,1.14,.17,2.33,.52,3.55,.35,1.23,.86,2.35,1.53,3.38,.67,1.03,1.5,1.87,2.51,2.53,1,.65,2.14,.98,3.43,.98,.53,0,1.09-.09,1.69-.27,.6-.18,1.15-.44,1.65-.77s.91-.74,1.23-1.21c.32-.47,.48-1,.48-1.59v-.38l.04-.67c0-.31,0-.62-.02-.94-.01-.32-.06-.63-.15-.94-.08-.31-.22-.58-.42-.81-.2-.24-.47-.41-.84-.52h5.01Z"/>
          <path class="cls-1" d="M248.56,59.86c0,.56,.1,1.09,.29,1.61,.19,.52,.6,.87,1.21,1.07h-5.56c.64-.19,1.05-.54,1.23-1.04,.18-.5,.27-1.04,.27-1.63l.04-17.34h-1.96c-1.11,0-2.14,.29-3.07,.88-.93,.58-1.66,1.37-2.19,2.34l.71-3.68h15.5l.75,3.63c-.53-.92-1.27-1.68-2.21-2.28-.95-.6-1.96-.9-3.05-.9h-1.96v17.34Z"/>
          <path class="cls-1" d="M277.6,52.29c0,1.42-.27,2.76-.81,4.01-.54,1.25-1.28,2.35-2.21,3.28-.93,.93-2.03,1.67-3.28,2.21-1.25,.54-2.59,.81-4.01,.81s-2.76-.27-4.01-.81c-1.25-.54-2.35-1.28-3.28-2.21-.93-.93-1.67-2.03-2.21-3.28-.54-1.25-.81-2.59-.81-4.01s.27-2.76,.81-4.01c.54-1.25,1.28-2.35,2.21-3.28,.93-.93,2.03-1.67,3.28-2.21,1.25-.54,2.59-.81,4.01-.81s2.76,.27,4.01,.81c1.25,.54,2.35,1.28,3.28,2.21,.93,.93,1.67,2.03,2.21,3.28,.54,1.25,.81,2.59,.81,4.01Zm-17.76-.5c0,1.09,.18,2.25,.54,3.49,.36,1.24,.88,2.38,1.57,3.43,.68,1.04,1.52,1.91,2.51,2.59,.99,.68,2.11,1.02,3.36,1.02,1.17,0,2.2-.31,3.09-.92,.89-.61,1.63-1.39,2.21-2.34,.58-.95,1.02-1.98,1.32-3.09,.29-1.11,.44-2.17,.44-3.18,0-1.14-.17-2.33-.52-3.55-.35-1.23-.87-2.35-1.57-3.38-.7-1.03-1.54-1.88-2.53-2.55-.99-.67-2.14-1-3.45-1-1.17,0-2.19,.31-3.05,.92-.86,.61-1.59,1.39-2.17,2.34-.58,.95-1.02,1.97-1.32,3.07-.29,1.1-.44,2.15-.44,3.15Z"/>
          <path class="cls-1" d="M281.15,59.48c0,.78,.22,1.43,.67,1.94,.45,.52,1.03,.88,1.75,1.11h-4.97c1.5-.47,2.26-1.49,2.26-3.05v-14.25c0-.75-.2-1.41-.58-1.98-.39-.57-.95-.97-1.67-1.19h4.22l11.49,15.71v-12.66c0-.78-.2-1.43-.61-1.94-.4-.52-.97-.88-1.69-1.11h4.8c-1.45,.47-2.17,1.49-2.17,3.05v17.42l-13.45-18.43-.04,15.38Z"/>
        </g>
        <path class="cls-1" d="M265.75,22.85c-.21-1.38-1.27-2.68-2.54-2.95-1.53-.32-2.97-.11-4.06,1.16-.75,.88-.86,2.26-.3,3.16,.52,.84,1.61,1.22,2.68,.98,.51-.12,.95-.33,1.07-.88,.09-.38,.05-.78-.3-1.05-.47-.36-.96-.29-1.47-.03-.73,.37-1.04,.17-1.03-.67,0-.7,.23-1.33,.91-1.64,.89-.4,1.82-.47,2.69,.04,1.16,.68,1.63,2.23,1.21,3.8-.38,1.4-1.34,2.13-2.81,2.19-2,.08-3.77-.61-5.46-1.57-.81-.46-1.61-.96-2.47-1.31-2.05-.84-4.74,.35-5.39,2.33-.49,1.5,.37,2.85,1.73,2.74,.47-.04,.83-.25,1.05-.69,.23-.47,.07-.86-.22-1.22-.2-.26-.48-.46-.66-.73-.3-.45-.27-.89,.2-1.22,.66-.46,2.96,.29,3.24,1.04,.04,.1,0,.22,0,.33-.09,6.45-5.15,9.42-9.84,8.51-2.18-.43-3.89-1.61-4.49-3.86-.56-2.1,.05-3.9,1.82-5.25,.38-.29,.64-.34,1.04-.03,1.01,.79,2.15,1.21,3.46,.96,1.09-.21,1.83-1.21,1.71-2.27-.13-1.06-.91-1.65-2.12-1.58-.41,.02-.82,.11-1.21,.22-1.17,.33-1.52,.12-1.73-1.11-.05-.3-.03-.6-.06-.9-.06-.62,.19-.71,.77-.57,1.33,.32,2.68,.37,3.92-.35,.95-.55,1.36-1.39,1.14-2.25-.19-.77-1.11-1.41-2.1-1.44-1.84-.06-3.39,.61-4.62,1.96-.34,.38-.58,.42-1.04,.23-1.78-.74-3.63-1.05-5.56-.71-2.42,.43-4.55,1.41-5.78,3.65-.87,1.58-.95,3.29,.12,4.84,1.01,1.47,2.53,1.83,4.22,1.62,.78-.1,1.4-.49,1.77-1.2,.59-1.14-.05-2.4-1.21-2.48-.75-.05-1.05,.44-1.36,.99-.54,.94-1.4,1.1-2.27,.43-.52-.41-.82-.94-.84-1.63-.06-1.65,.66-2.94,1.97-3.87,2.75-1.95,5.69-1.86,8.71-.73,.46,.17,.22,.41,.14,.64-.38,1.06-.32,2.11,.12,3.13,.18,.42,.68,.92,.57,1.2-.15,.37-.76,.55-1.16,.84-2.21,1.57-3.21,3.71-2.91,6.4,.27,2.44,1.68,4.11,3.87,5.03,3.86,1.62,8.48,1.14,11.48-2.78,1.65-2.16,2.38-4.6,2.47-7.39,1.95,1.16,3.94,1.65,6.08,1.56,3.25-.13,5.32-2.5,4.85-5.61Zm-21.9,1.88c.3-.58,.97-.57,1.49-.7,.63,.02,1.11,.24,1.12,.88,.01,.6-.43,.84-.98,.87-.49,.02-1.76-.79-1.63-1.06Zm-.75-5.73c.76-1.07,1.87-1.38,3.1-1.35,.47,.01,.86,.25,.98,.74,.11,.48-.1,.86-.48,1.15-.61,.46-1.31,.51-2.04,.53-.41-.05-.81-.12-1.22-.14-.87-.04-.67-.45-.34-.92Z"/>
      </g>
    </g>
  </g>
</svg>